<?xml version="1.0" standalone="no"?>
<!DOCTYPE svg PUBLIC "-//W3C//DTD SVG 20010904//EN"
 "http://www.w3.org/TR/2001/REC-SVG-20010904/DTD/svg10.dtd">
<svg version="1.0" xmlns="http://www.w3.org/2000/svg"
 width="1020.000000pt" height="1020.000000pt" viewBox="0 0 1020.000000 1020.000000"
 preserveAspectRatio="xMidYMid meet">
<metadata>
Created by potrace 1.14, written by Peter Selinger 2001-2017
</metadata>
<g transform="translate(0.000000,1020.000000) scale(0.100000,-0.100000)"
fill="#000000" stroke="none">
<path d="M5 9618 c2 -7 30 -85 61 -173 31 -88 62 -178 70 -200 7 -22 22 -64
32 -92 11 -29 18 -53 15 -53 -3 0 0 -7 7 -15 7 -8 9 -15 5 -15 -4 0 -3 -6 2
-12 8 -10 31 -68 38 -98 4 -13 17 -47 26 -62 5 -10 9 -27 9 -37 0 -11 5 -23
10 -26 6 -3 10 -16 10 -29 0 -12 4 -26 8 -31 4 -6 16 -35 26 -65 10 -30 20
-62 23 -70 4 -8 5 -18 5 -22 -1 -5 3 -8 10 -8 6 0 9 -3 5 -6 -6 -6 12 -62 35
-109 5 -12 10 -27 12 -35 2 -8 6 -22 9 -30 10 -27 59 -165 61 -175 2 -5 6 -17
9 -25 3 -8 22 -62 42 -120 58 -167 96 -273 108 -305 6 -16 12 -34 13 -40 1 -5
14 -41 29 -80 14 -38 28 -77 30 -85 3 -14 49 -146 62 -180 3 -8 7 -19 9 -25 1
-5 23 -68 49 -140 26 -71 53 -149 60 -173 7 -24 19 -49 25 -57 7 -8 10 -15 7
-15 -3 0 13 -51 35 -112 22 -62 48 -138 58 -168 10 -30 40 -113 65 -185 26
-71 47 -134 49 -140 1 -5 4 -14 8 -20 3 -5 11 -26 16 -45 6 -19 25 -73 42
-120 17 -47 32 -89 34 -95 2 -5 6 -17 9 -25 3 -8 13 -35 21 -60 8 -25 35 -103
61 -175 25 -71 47 -134 49 -140 2 -5 6 -17 9 -25 9 -23 64 -179 81 -230 8 -25
34 -97 56 -160 23 -63 42 -121 43 -127 0 -7 4 -13 9 -13 5 0 7 -4 4 -8 -3 -5
2 -22 10 -38 9 -16 15 -30 15 -32 -3 -6 12 -58 19 -67 4 -5 15 -37 25 -70 10
-33 23 -66 29 -74 6 -8 10 -17 10 -20 -1 -3 1 -13 3 -21 10 -32 21 -66 29 -85
4 -11 8 -24 10 -30 1 -5 18 -53 37 -107 20 -53 33 -99 30 -102 -4 -3 -1 -6 6
-6 7 0 9 -4 6 -10 -3 -5 -1 -10 6 -10 7 0 10 -3 6 -6 -5 -5 10 -55 40 -134 3
-8 7 -19 9 -25 6 -22 51 -148 90 -250 4 -11 6 -24 5 -29 -1 -4 2 -13 7 -20 5
-6 26 -60 47 -121 21 -60 51 -146 67 -190 16 -44 31 -88 33 -97 2 -9 9 -27 16
-40 7 -13 12 -25 12 -28 -1 -6 1 -10 27 -90 12 -36 28 -79 36 -97 8 -17 14
-37 14 -45 0 -8 5 -19 12 -26 7 -7 9 -12 5 -12 -4 0 -1 -13 8 -30 8 -16 15
-32 14 -35 -1 -7 30 -95 42 -117 5 -10 9 -25 9 -33 0 -8 4 -23 10 -33 8 -15
67 -179 74 -207 3 -9 7 -20 23 -62 3 -10 5 -21 5 -25 -1 -5 3 -8 9 -8 5 0 8
-4 5 -9 -3 -4 5 -36 18 -70 14 -33 22 -61 19 -61 -3 0 -1 -6 4 -12 8 -10 31
-68 38 -98 1 -3 5 -14 9 -25 15 -37 19 -50 22 -60 1 -5 23 -68 49 -140 25 -71
53 -150 61 -175 8 -25 19 -54 24 -65 4 -11 27 -76 51 -145 23 -69 46 -129 51
-134 4 -6 8 -17 8 -25 0 -16 55 -176 71 -204 5 -10 7 -22 4 -27 -4 -6 -1 -10
4 -10 6 0 10 -3 9 -7 -3 -13 19 -78 43 -125 5 -10 9 -23 9 -30 0 -11 53 -164
70 -203 5 -11 19 -49 30 -85 12 -36 24 -72 27 -80 3 -8 7 -19 9 -25 1 -5 24
-68 49 -140 26 -71 52 -147 58 -167 l11 -38 488 0 487 0 13 43 c6 23 16 45 21
48 5 3 8 10 8 15 -2 13 51 157 62 171 5 7 7 13 4 13 -3 0 6 28 20 63 14 34 39
98 55 142 16 44 40 109 53 145 13 36 54 144 90 240 37 96 68 184 69 195 2 11
-6 42 -16 70 -44 117 -49 131 -53 145 -3 13 -49 145 -145 415 -16 44 -47 134
-70 200 -42 121 -48 137 -69 188 -6 15 -11 37 -11 47 0 11 -4 20 -9 20 -5 0
-12 15 -16 33 -10 42 -9 38 -45 137 -18 47 -60 166 -95 265 -35 99 -91 259
-125 355 -68 193 -113 322 -190 540 -28 80 -53 152 -57 160 -3 8 -7 20 -9 25
-1 6 -26 75 -54 155 -88 248 -121 344 -130 372 -5 15 -12 33 -16 40 -5 7 -10
19 -11 26 -6 23 -10 37 -22 66 -6 16 -13 36 -15 45 -2 9 -8 27 -13 41 -6 14
-30 79 -53 145 -90 259 -196 558 -228 645 -3 8 -6 20 -8 25 -10 38 -90 261
-95 265 -3 3 -11 28 -19 55 -7 28 -16 55 -20 60 -4 6 -10 19 -13 30 -2 11 -22
67 -42 125 -20 58 -50 143 -67 190 -16 47 -32 92 -35 100 -4 8 -7 18 -8 23 -2
4 -4 9 -5 12 -1 3 -3 8 -5 13 -1 4 -5 16 -9 27 -29 74 -35 95 -31 95 3 0 -2
11 -11 25 -9 14 -13 25 -9 25 4 0 2 7 -5 15 -7 8 -9 15 -4 15 4 0 3 5 -4 12
-7 7 -12 19 -12 27 0 9 -6 28 -14 42 -10 21 -26 65 -30 89 -1 3 -6 19 -13 35
-22 59 -26 70 -28 78 -2 4 -4 9 -5 12 -1 3 -3 8 -5 13 -1 4 -4 14 -8 22 -3 8
-24 67 -45 130 -22 63 -66 187 -97 275 -31 88 -68 194 -82 235 -14 41 -30 81
-36 88 -5 6 -7 12 -4 12 3 0 -8 37 -25 83 -16 45 -31 87 -33 92 -1 6 -5 17 -8
25 -9 20 -84 232 -103 290 -8 25 -19 54 -24 65 -8 18 -20 55 -26 80 -2 6 -15
42 -29 80 -15 39 -31 86 -37 105 -6 19 -14 40 -18 45 -5 6 -9 15 -9 20 -2 15
-11 48 -21 70 -22 50 -49 135 -44 135 4 0 2 6 -3 13 -5 6 -17 35 -27 62 -10
28 -20 57 -23 65 -4 8 -7 18 -8 23 -2 4 -4 9 -5 12 -1 3 -4 10 -5 15 -1 6 -3
11 -5 13 -1 1 -3 9 -5 17 -3 8 -23 67 -46 130 -22 63 -50 143 -62 178 l-21 62
-873 0 c-693 0 -872 -3 -868 -12z"/>
<path d="M5656 9583 c9 -27 19 -57 24 -68 5 -11 30 -81 55 -155 26 -74 49
-142 52 -150 4 -8 7 -17 8 -20 1 -3 4 -12 7 -20 11 -28 73 -205 74 -210 0 -3
3 -12 7 -20 7 -18 53 -148 102 -290 20 -58 54 -154 76 -215 21 -60 41 -120 43
-131 3 -12 9 -30 14 -40 18 -33 42 -104 36 -104 -4 0 -2 -6 3 -12 6 -7 20 -44
33 -83 13 -38 27 -74 32 -79 4 -6 8 -18 8 -28 0 -10 4 -26 10 -36 5 -9 24 -60
41 -112 18 -52 36 -101 42 -107 5 -7 7 -13 4 -13 -3 0 8 -37 24 -82 17 -46 41
-114 54 -153 13 -38 33 -94 44 -122 11 -29 18 -53 15 -53 -4 0 -2 -6 3 -12 8
-10 40 -95 48 -128 1 -3 5 -12 8 -20 4 -8 22 -60 41 -115 19 -55 62 -179 96
-275 34 -96 68 -193 75 -215 8 -22 34 -96 58 -165 25 -69 75 -210 111 -315 37
-104 76 -215 87 -245 12 -30 29 -80 39 -110 10 -30 39 -113 65 -185 25 -71 53
-150 61 -175 8 -25 18 -52 21 -60 4 -8 7 -18 8 -22 2 -5 4 -10 5 -13 1 -3 3
-8 5 -12 1 -5 4 -15 8 -23 3 -8 29 -82 57 -165 29 -82 55 -159 60 -170 5 -11
36 -101 70 -200 34 -99 66 -189 70 -200 15 -38 23 -60 26 -72 1 -7 14 -43 27
-80 33 -89 40 -106 43 -118 1 -5 19 -55 39 -110 20 -55 37 -104 39 -110 2 -5
5 -17 8 -25 3 -8 16 -44 28 -80 12 -36 26 -74 30 -85 13 -32 54 -149 57 -160
1 -5 20 -62 43 -125 23 -63 48 -135 56 -160 13 -36 53 -150 82 -230 3 -8 6
-19 8 -25 1 -5 26 -75 54 -155 29 -80 61 -170 71 -200 10 -30 35 -100 55 -155
20 -55 39 -110 41 -123 3 -12 9 -25 14 -28 5 -3 9 -16 9 -29 0 -13 5 -27 10
-30 6 -3 10 -17 10 -30 0 -13 4 -26 8 -29 4 -3 14 -28 22 -56 8 -28 18 -53 22
-56 4 -3 8 -13 8 -22 0 -9 9 -39 20 -67 10 -27 38 -104 61 -170 23 -66 44
-127 47 -135 3 -8 6 -18 6 -22 1 -3 4 -10 9 -14 4 -4 7 -13 7 -20 0 -7 5 -25
12 -41 6 -15 12 -35 14 -43 2 -8 7 -23 13 -35 10 -20 54 -145 96 -270 12 -38
32 -92 43 -120 11 -27 20 -52 20 -55 1 -8 9 -30 43 -123 18 -49 32 -95 32
-103 0 -8 4 -14 9 -14 4 0 8 -9 8 -20 0 -11 4 -28 10 -38 12 -22 100 -277 100
-291 0 -8 149 -11 489 -11 l489 0 18 53 c9 28 21 58 27 64 5 7 6 13 2 13 -4 0
-3 6 3 12 6 7 11 18 12 23 1 6 7 21 12 35 5 14 20 57 34 95 14 39 42 113 62
165 20 52 35 98 34 103 -1 4 2 7 8 7 5 0 7 7 4 15 -4 8 -1 15 5 15 6 0 11 7
11 15 0 9 12 43 26 78 14 34 27 69 29 77 4 16 77 212 101 270 15 34 13 40 -41
195 -31 88 -58 165 -59 170 -2 6 -6 18 -10 27 -4 9 -9 22 -10 30 -1 7 -7 22
-13 33 -6 11 -11 22 -11 25 -1 3 -4 14 -7 25 -4 11 -11 31 -15 45 -4 14 -12
34 -16 45 -4 11 -8 22 -9 25 -1 3 -4 12 -7 20 -3 8 -13 38 -23 65 -9 28 -19
57 -22 65 -3 8 -7 20 -9 25 -1 6 -19 55 -39 110 -20 55 -38 107 -40 115 -2 8
-16 47 -30 85 -14 39 -40 111 -57 160 -17 50 -35 101 -41 115 -5 14 -11 30
-12 35 -2 6 -4 17 -6 25 -2 8 -6 17 -9 20 -3 3 -13 28 -22 55 -34 103 -110
320 -116 330 -4 6 -8 19 -9 29 -2 11 -8 25 -14 33 -6 7 -9 13 -6 13 5 0 -24
86 -50 150 -3 8 -7 22 -9 30 -2 8 -17 51 -34 95 -17 44 -33 87 -35 95 -2 8
-22 67 -45 130 -23 63 -43 120 -44 125 -2 6 -6 17 -9 25 -3 8 -15 42 -27 75
-11 33 -23 67 -27 75 -3 8 -7 20 -9 25 -1 6 -13 42 -27 80 -14 39 -44 124 -67
190 -23 66 -44 127 -47 135 -3 8 -5 18 -5 23 1 4 -2 7 -6 7 -4 0 -9 10 -9 22
-1 13 -10 41 -19 63 -42 102 -65 165 -59 165 3 0 1 9 -5 20 -11 21 -112 303
-136 380 -8 25 -18 54 -23 65 -6 11 -17 40 -25 65 -8 25 -33 97 -56 160 -54
152 -119 335 -136 385 -7 22 -27 78 -44 125 -17 47 -32 92 -35 100 -2 8 -9 29
-15 45 -17 44 -111 307 -115 325 -4 14 -51 145 -73 201 -6 15 -8 30 -5 33 4 3
2 6 -4 6 -5 0 -10 6 -10 13 -1 13 -28 94 -50 144 -7 17 -16 45 -19 62 -4 17
-11 34 -15 37 -5 3 -9 15 -9 28 0 12 -4 26 -9 32 -5 5 -27 65 -50 133 -23 69
-45 130 -49 135 -3 6 -7 17 -8 24 -2 8 -6 21 -10 30 -4 9 -8 22 -9 28 -2 7
-17 52 -35 100 -41 113 -78 218 -130 369 -23 66 -45 129 -50 140 -4 11 -13 34
-18 50 -29 84 -74 212 -81 230 -5 11 -16 43 -25 70 -46 132 -97 276 -117 330
-12 33 -39 110 -60 170 -21 61 -59 169 -84 240 -26 72 -48 135 -49 140 -1 6
-4 15 -7 20 -3 6 -16 43 -30 83 l-24 72 -872 0 -872 0 15 -47z"/>
</g>
</svg>
