<svg id="Layer_1" data-name="Layer 1" xmlns="http://www.w3.org/2000/svg" viewBox="0 0 577.25 393"><path d="M385.23,168.86c0,30.92-18.87,53-54.2,62.63v.8c38.14,4,59.42,28.11,59.42,66.25,0,51.39-38.54,81.5-104,81.5-74.68,0-112.82-32.12-112.82-94.75h74.68c.4,19.27,12,29.31,33.72,29.31,19.27,0,30.51-9.24,30.51-25.3,0-18.06-12-24.49-46.17-24.49H256V207.4h10.44c29.31,0,41.35-7.22,41.35-25.29,0-14.05-10-22.08-27.3-22.08-18.46,0-29.3,8.83-30.51,24.49H179.27c0-56.21,36.54-87.52,103.18-87.52C346.69,97,385.23,123.9,385.23,168.86Z" transform="translate(-173.47 -97)"/><path d="M505.27,374H433V173.28h-8.43V103h80.7Z" transform="translate(-173.47 -97)"/><path d="M718.44,171.27H620.89l-3.62,35.33h1.21c10-6.82,24.09-12.44,43.36-12.44,43.76,0,85.11,26.49,85.11,86.71,0,57.82-38.14,99.17-112,99.17-40.15,0-75.08-12.05-99.57-29.31L569.9,288.9c20.48,14.86,43.36,22.49,63,22.49,26.1,0,38.54-13.25,38.54-31.72S658.63,248,637.75,248c-15.66,0-28.1,7.23-34.13,17.27H550.23L564.68,103H718.44Z" transform="translate(-173.47 -97)"/><rect y="318.45" width="577.25" height="74.55"/></svg>