<?xml version="1.0" encoding="utf-8"?>
<!-- Generator: Adobe Illustrator 26.0.2, SVG Export Plug-In . SVG Version: 6.00 Build 0)  -->
<svg version="1.1" id="_x31_000lines" xmlns="http://www.w3.org/2000/svg" xmlns:xlink="http://www.w3.org/1999/xlink" x="0px"
	 y="0px" viewBox="0 0 594 93" style="enable-background:new 0 0 594 93;" xml:space="preserve">
<style type="text/css">
	.st0{fill-rule:evenodd;clip-rule:evenodd;fill:#191919;}
</style>
<path id="shape" class="st0" d="M222.9,24.5c7.2,0,12.1,4,13.4,9.8l0.1,0.3l-5.3,1.6c-1-4.2-3.9-6.2-8.2-6.2c-3.9,0-7.3,2.2-7.3,6.1
	c0,1.8,0.5,4.1,5,5.9l0.3,0.1l6.3,2.5c6.7,2.2,10,6.9,10,11.6c0,7.5-5.9,12.3-14.5,12.3c-8,0-13.6-4.6-15.1-10.4l-0.1-0.3l5.5-1.4
	c0.7,3.5,4.4,6.6,9.6,6.6c5.3,0,8.7-2.7,8.7-6.5c0-3.2-2.5-5.2-5.8-6.5l-0.3-0.1l-6.2-2.2c-8.2-2.7-9.6-7.7-9.6-11.4
	C209.5,28.9,215.9,24.5,222.9,24.5z M131.7,24.5c11.7,0,21.4,9.9,21.4,21.9s-9.6,21.9-21.4,21.9s-21.4-9.9-21.4-21.9
	S119.9,24.5,131.7,24.5z M169.3,24.5v26.6c0,7.7,4.9,11.5,10.7,11.6h0.3c5.9,0,10.9-3.7,11-11.3V51V24.4h6.2V51
	c0,11.3-7.9,17.3-17.3,17.3c-9.3,0-17.1-5.8-17.3-16.9v-0.4V24.5L169.3,24.5L169.3,24.5z M270.9,24.5l16.4,43.9h-6.1l-3.2-8.8h-21.1
	l-3.3,8.8h-6.3l16.4-43.9C263.7,24.5,270.9,24.5,270.9,24.5z M73.9,24.5v19.9h20.2V24.5h6.2v43.9h-6.2V50.6H73.9v17.8h-6.2V24.5
	H73.9z M301.8,24.5l23.6,32.4V24.5h6.3v43.9H327l-23.6-32.5v32.5h-6.2V24.5H301.8z M355.5,24.5c13.9,0,22.3,9.9,22.1,21.9
	c0,12-8.2,21.7-21.7,21.9h-0.4h-13.8V24.5L355.5,24.5L355.5,24.5z M43.4,36.2v32.1h-6.2V36.2L43.4,36.2L43.4,36.2z M464.3,24.5
	l23.6,32.4V24.5h6.3v43.9h-4.5L466,35.9v32.5h-6.2V24.5H464.3z M449.7,24.5v43.9h-6.2V24.5H449.7z M557,24.5c7.2,0,12.1,4,13.4,9.8
	l0.1,0.3l-5.3,1.6c-1-4.2-3.9-6.2-8.2-6.2c-3.9,0-7.3,2.2-7.3,6.1c0,1.8,0.5,4.1,5,5.9l0.3,0.1l6.3,2.5c6.7,2.2,10,6.9,9.8,11.5
	c0,7.5-5.9,12.3-14.5,12.3c-8,0-13.6-4.6-15.1-10.4l-0.1-0.3l5.6-1.4c0.7,3.5,4.4,6.6,9.6,6.6c5.3,0,8.7-2.7,8.7-6.5
	c0-3.2-2.5-5.2-5.8-6.5l-0.3-0.1l-6.2-2.2c-8.2-2.7-9.6-7.7-9.6-11.4C543.7,28.9,550,24.5,557,24.5z M531.6,24.5v5.1h-21.2v14.8H529
	v5.1h-18.6v13.9h21.2v5.1h-27.4v-44L531.6,24.5L531.6,24.5z M413.8,24.5v38.8h19.8v5.1h-25.9V24.5H413.8z M355.5,29.5h-7.6v33.7h7.6
	c10,0,16-7.6,15.8-16.9C371.3,37,365.3,29.5,355.5,29.5z M131.7,30.4c-8.6,0-15.6,7-15.6,15.9s7,16,15.6,16s15.6-7,15.6-15.9
	C147.3,37.6,140.3,30.4,131.7,30.4z M267.3,30.5l-8.6,23.9h17.4L267.3,30.5z M57.7,24.5v6.3H22.8v-6.3H57.7z"/>
</svg>
