<svg xmlns="http://www.w3.org/2000/svg" viewBox="0 0 422.4 81.47"><defs><style>.cls-1{fill:#2b4233;}</style></defs><g id="layer_2" data-name="Layer 2"><g id="Layer_1" data-name="Layer 1"><path class="cls-1" d="M386.06,73.28V43a226.34,226.34,0,0,1,23.83,1V36.2a229.34,229.34,0,0,1-23.83,1V8.47h34.53V1.73H370.81V80H422.4V73.28Z"/><polygon class="cls-1" points="109.11 1.57 93.85 1.62 121.63 80.67 130.01 80.67 133.57 70.62 109.11 1.57"/><path class="cls-1" d="M26.85,8.33V79.88H42.11V8.33s7.22,0,13.55.49,13.25,1.29,13.25,1.29V1.59c-18.36-.13-51.2.09-68.91,0v8.52s6.91-.76,13.25-1.29,13.55-.5,13.55-.5V79.87"/><polygon class="cls-1" points="157.83 1.57 142.57 1.62 170.35 80.67 178.73 80.67 182.29 70.62 157.83 1.57"/><rect class="cls-1" x="227.19" y="1.59" width="15.26" height="78.29"/><path class="cls-1" d="M326.3,52.36l-.06,1.2c-.32,6.64-1.25,10.31-3.56,14.06-2.6,4.25-8.32,7.22-13.91,7.22-12.8,0-19.29-11.49-19.29-34.16S296,6.62,308.88,6.62a16.59,16.59,0,0,1,13.7,6.91c2.27,3.57,3.23,6.92,3.67,12.82l.08,1.17h15.41l-.14-1.39c-.59-6.1-1.92-9.87-4.88-13.9C331.3,4.57,321.23,0,309.79,0c-9.73,0-18.54,3.06-24.8,8.61-7.38,6.56-11.79,18.59-11.79,32.18,0,11.87,3.61,23.29,9.42,29.82,6.31,6.9,16.09,10.86,26.83,10.86,11.55,0,21.66-4.62,27.06-12.37,3.09-4.52,4.51-8.68,5.21-15.34l.14-1.4Z"/></g></g></svg>