<svg preserveAspectRatio="xMidYMid meet" data-bbox="5.726 5.999 21.997 18.001" data-type="shape" xmlns="http://www.w3.org/2000/svg" width="30" height="30" viewBox="0 0 30 30" role="presentation" aria-hidden="true" aria-labelledby="svgcid-mzh1d1-e0ivnc"><title id="svgcid-mzh1d1-e0ivnc"></title>
    <g>
        <defs>
            <filter id="svgcid--j3co0jf5igxp" height="200%" width="200%" y="-50%" x="-50%">
                <feOffset result="out-offset" in="SourceAlpha"></feOffset>
                <feGaussianBlur result="out-blur" in="out-offset" stdDeviation="2"></feGaussianBlur>
                <feColorMatrix result="out-matrix" in="out-blur" values="0 0 0 0 0 0 0 0 0 0 0 0 0 0 0 0 0 0 0.40 0"></feColorMatrix>
                <feMerge>
                    <feMergeNode in="out-matrix"></feMergeNode>
                    <feMergeNode in="SourceGraphic"></feMergeNode>
                </feMerge>
            </filter>
        </defs>
        <path filter="url(#svgcid--j3co0jf5igxp)" d="M27.39 17.535a.478.478 0 0 1 .306.615v.001a.51.51 0 0 1-.641.292L6.074 12.471a.478.478 0 0 1-.325-.605.505.505 0 0 1 .661-.302l20.98 5.971zm-6.211.375c1.911-.377 1.812 2.001 1.813 2.001 0 1.273-.986 2.713-3.235 2.713-2.009 0-2.515-1.345-2.515-2.252 0-1.117.646-2.258 2.519-2.258.671-.001 1.095-.141 1.418-.204zm-8.427-1.643v.013h.001l-.005 5.007c0 1.273-.985 2.713-3.233 2.713C7.506 24 7 22.655 7 21.748c0-1.117.646-2.258 2.519-2.258 1.696 0 1.972-.427 1.972-1.319l.001-1.934a.513.513 0 0 1 .512-.477h.23c.285 0 .518.228.518.507zm-.537-4.642a.666.666 0 0 1-.506-.141.61.61 0 0 1-.22-.468l.006-2.86c0-.304.227-.562.535-.609l10.238-1.54a.629.629 0 0 1 .726.609L23 13.591c0 .013-.006.024-.007.036a.49.49 0 0 1-.094.248.516.516 0 0 1-.416.222h-.229a.51.51 0 0 1-.517-.505l-.004-3.479-9.518 1.512z" fill="currentColor"></path>
    </g>
</svg>